<svg width="110" height="59" viewBox="0 0 110 59" fill="none" xmlns="http://www.w3.org/2000/svg">
  <g opacity="0.95">
    <circle cx="15.0574" cy="35.2283" r="13.65" transform="rotate(-3.84411 15.0574 35.2283)" fill="white"/>
    <circle cx="33.9905" cy="26.1385" r="13.65" transform="rotate(-3.84411 33.9905 26.1385)" fill="white"/>
    <circle cx="35.0364" cy="41.7034" r="13.65" transform="rotate(-3.84411 35.0364 41.7034)" fill="white"/>
    <circle cx="51.114" cy="28.8967" r="13.65" transform="rotate(-3.84411 51.114 28.8967)" fill="white"/>
    <circle cx="58.4709" cy="41.4317" r="13.65" transform="rotate(-3.84411 58.4709 41.4317)" fill="white"/>
    <circle cx="72.1287" cy="31.3934" r="13.65" transform="rotate(-3.84411 72.1287 31.3934)" fill="white"/>
  </g>
  <g opacity="0.6">
    <circle cx="37.3171" cy="27.0558" r="13.65" transform="rotate(-4.59401 37.3171 27.0558)" fill="white"/>
    <circle cx="56.1297" cy="17.719" r="13.65" transform="rotate(-4.59401 56.1297 17.719)" fill="white"/>
    <circle cx="57.3791" cy="33.2689" r="13.65" transform="rotate(-4.59401 57.3791 33.2689)" fill="white"/>
    <circle cx="73.2878" cy="20.2529" r="13.65" transform="rotate(-4.59401 73.2878 20.2529)" fill="white"/>
    <circle cx="80.8081" cy="32.6905" r="13.65" transform="rotate(-4.59401 80.8081 32.6905)" fill="white"/>
    <circle cx="94.3334" cy="22.4744" r="13.65" transform="rotate(-4.59401 94.3334 22.4744)" fill="white"/>
  </g>
</svg>
