<svg width="100" height="68" viewBox="0 0 100 68" fill="none" xmlns="http://www.w3.org/2000/svg">
  <g opacity="0.95">
    <circle cx="15.0574" cy="43.7981" r="13.65" transform="rotate(-3.84411 15.0574 43.7981)" fill="white"/>
    <circle cx="33.9905" cy="34.7083" r="13.65" transform="rotate(-3.84411 33.9905 34.7083)" fill="white"/>
    <circle cx="35.0364" cy="50.2732" r="13.65" transform="rotate(-3.84411 35.0364 50.2732)" fill="white"/>
    <circle cx="51.114" cy="37.4665" r="13.65" transform="rotate(-3.84411 51.114 37.4665)" fill="white"/>
    <circle cx="58.4709" cy="50.0015" r="13.65" transform="rotate(-3.84411 58.4709 50.0015)" fill="white"/>
    <circle cx="72.1287" cy="39.9633" r="13.65" transform="rotate(-3.84411 72.1287 39.9633)" fill="white"/>
  </g>
  <g opacity="0.6">
    <circle cx="26.8979" cy="26.1517" r="13.65" transform="rotate(-3.84411 26.8979 26.1517)" fill="white"/>
    <circle cx="45.8311" cy="17.0619" r="13.65" transform="rotate(-3.84411 45.8311 17.0619)" fill="white"/>
    <circle cx="46.8769" cy="32.6268" r="13.65" transform="rotate(-3.84411 46.8769 32.6268)" fill="white"/>
    <circle cx="62.9546" cy="19.8201" r="13.65" transform="rotate(-3.84411 62.9546 19.8201)" fill="white"/>
    <circle cx="70.3115" cy="32.3551" r="13.65" transform="rotate(-3.84411 70.3115 32.3551)" fill="white"/>
    <circle cx="83.9692" cy="22.3168" r="13.65" transform="rotate(-3.84411 83.9692 22.3168)" fill="white"/>
  </g>
</svg>
